<?xml version="1.0" encoding="UTF-8" standalone="no"?>
<!DOCTYPE svg PUBLIC "-//W3C//DTD SVG 1.1//EN"
 "http://www.w3.org/Graphics/SVG/1.1/DTD/svg11.dtd">
<!-- Generated by graphviz version 14.0.2 (20251019.1705)
 -->
<!-- Title: RamiGPT_PromptFlow Pages: 1 -->
<svg width="1427pt" height="139pt"
 viewBox="0.00 0.00 1427.00 139.00" xmlns="http://www.w3.org/2000/svg" xmlns:xlink="http://www.w3.org/1999/xlink">
<g id="graph0" class="graph" transform="scale(1 1) rotate(0) translate(4 135.38)">
<title>RamiGPT_PromptFlow</title>
<polygon fill="white" stroke="none" points="-4,4 -4,-135.38 1422.5,-135.38 1422.5,4 -4,4"/>
<!-- Start -->
<g id="node1" class="node">
<title>Start</title>
<path fill="#e3f2fd" stroke="black" d="M102.25,-42.62C102.25,-42.62 12,-42.62 12,-42.62 6,-42.62 0,-36.62 0,-30.62 0,-30.62 0,-18.12 0,-18.12 0,-12.12 6,-6.12 12,-6.12 12,-6.12 102.25,-6.12 102.25,-6.12 108.25,-6.12 114.25,-12.12 114.25,-18.12 114.25,-18.12 114.25,-30.62 114.25,-30.62 114.25,-36.62 108.25,-42.62 102.25,-42.62"/>
<text xml:space="preserve" text-anchor="middle" x="57.12" y="-27.23" font-family="Arial" font-size="12.00">Prompt</text>
<text xml:space="preserve" text-anchor="middle" x="57.12" y="-12.97" font-family="Arial" font-size="12.00">(generate_prompt)</text>
</g>
<!-- AI -->
<g id="node2" class="node">
<title>AI</title>
<path fill="#f8bbd0" stroke="black" d="M342.5,-50.75C342.5,-50.75 224.5,-50.75 224.5,-50.75 218.5,-50.75 212.5,-44.75 212.5,-38.75 212.5,-38.75 212.5,-12 212.5,-12 212.5,-6 218.5,0 224.5,0 224.5,0 342.5,0 342.5,0 348.5,0 354.5,-6 354.5,-12 354.5,-12 354.5,-38.75 354.5,-38.75 354.5,-44.75 348.5,-50.75 342.5,-50.75"/>
<text xml:space="preserve" text-anchor="middle" x="283.5" y="-35.35" font-family="Arial" font-size="12.00">AI Provider</text>
<text xml:space="preserve" text-anchor="middle" x="283.5" y="-21.1" font-family="Arial" font-size="12.00">(Ollama / Open WebUI /</text>
<text xml:space="preserve" text-anchor="middle" x="283.5" y="-6.85" font-family="Arial" font-size="12.00">OpenAI / Cursor API)</text>
</g>
<!-- Start&#45;&gt;AI -->
<g id="edge1" class="edge">
<title>Start&#45;&gt;AI</title>
<path fill="none" stroke="black" d="M114.74,-24.63C140.18,-24.74 170.72,-24.88 198.72,-25"/>
<polygon fill="black" stroke="black" points="198.71,-29.2 210.72,-25.06 198.74,-20.8 198.71,-29.2"/>
<text xml:space="preserve" text-anchor="middle" x="163.38" y="-41.51" font-family="Arial" font-size="11.00">Send prompt</text>
<text xml:space="preserve" text-anchor="middle" x="163.38" y="-28.01" font-family="Arial" font-size="11.00">with context</text>
</g>
<!-- Command -->
<g id="node3" class="node">
<title>Command</title>
<path fill="#fff9c4" stroke="black" d="M522,-48.62C522,-48.62 460.25,-48.62 460.25,-48.62 454.25,-48.62 448.25,-42.62 448.25,-36.62 448.25,-36.62 448.25,-24.12 448.25,-24.12 448.25,-18.12 454.25,-12.12 460.25,-12.12 460.25,-12.12 522,-12.12 522,-12.12 528,-12.12 534,-18.12 534,-24.12 534,-24.12 534,-36.62 534,-36.62 534,-42.62 528,-48.62 522,-48.62"/>
<text xml:space="preserve" text-anchor="middle" x="491.12" y="-33.23" font-family="Arial" font-size="12.00">Command</text>
<text xml:space="preserve" text-anchor="middle" x="491.12" y="-18.98" font-family="Arial" font-size="12.00">(filter_output)</text>
</g>
<!-- AI&#45;&gt;Command -->
<g id="edge2" class="edge">
<title>AI&#45;&gt;Command</title>
<path fill="none" stroke="black" d="M354.98,-27.09C380.95,-27.72 409.99,-28.43 434.47,-29.02"/>
<polygon fill="black" stroke="black" points="434.31,-33.22 446.41,-29.31 434.52,-24.82 434.31,-33.22"/>
<text xml:space="preserve" text-anchor="middle" x="401.38" y="-45.45" font-family="Arial" font-size="11.00">AI response</text>
<text xml:space="preserve" text-anchor="middle" x="401.38" y="-31.95" font-family="Arial" font-size="11.00">(command)</text>
</g>
<!-- Shell -->
<g id="node4" class="node">
<title>Shell</title>
<path fill="#ffccbc" stroke="black" d="M702.25,-68.62C702.25,-68.62 621,-68.62 621,-68.62 615,-68.62 609,-62.62 609,-56.62 609,-56.62 609,-44.12 609,-44.12 609,-38.12 615,-32.12 621,-32.12 621,-32.12 702.25,-32.12 702.25,-32.12 708.25,-32.12 714.25,-38.12 714.25,-44.12 714.25,-44.12 714.25,-56.62 714.25,-56.62 714.25,-62.62 708.25,-68.62 702.25,-68.62"/>
<text xml:space="preserve" text-anchor="middle" x="661.62" y="-53.23" font-family="Arial" font-size="12.00">Shell</text>
<text xml:space="preserve" text-anchor="middle" x="661.62" y="-38.98" font-family="Arial" font-size="12.00">(SSH Execution)</text>
</g>
<!-- Command&#45;&gt;Shell -->
<g id="edge3" class="edge">
<title>Command&#45;&gt;Shell</title>
<path fill="none" stroke="black" d="M534.21,-35.37C552.68,-37.56 574.8,-40.19 595.33,-42.62"/>
<polygon fill="black" stroke="black" points="594.62,-46.77 607.03,-44.01 595.61,-38.43 594.62,-46.77"/>
<text xml:space="preserve" text-anchor="middle" x="571.5" y="-44.62" font-family="Arial" font-size="11.00">Execute</text>
</g>
<!-- Output -->
<g id="node5" class="node">
<title>Output</title>
<path fill="#c8e6c9" stroke="black" d="M878.75,-71.62C878.75,-71.62 801.25,-71.62 801.25,-71.62 795.25,-71.62 789.25,-65.62 789.25,-59.62 789.25,-59.62 789.25,-47.12 789.25,-47.12 789.25,-41.12 795.25,-35.12 801.25,-35.12 801.25,-35.12 878.75,-35.12 878.75,-35.12 884.75,-35.12 890.75,-41.12 890.75,-47.12 890.75,-47.12 890.75,-59.62 890.75,-59.62 890.75,-65.62 884.75,-71.62 878.75,-71.62"/>
<text xml:space="preserve" text-anchor="middle" x="840" y="-56.23" font-family="Arial" font-size="12.00">Output</text>
<text xml:space="preserve" text-anchor="middle" x="840" y="-41.98" font-family="Arial" font-size="12.00">(shell response)</text>
</g>
<!-- Shell&#45;&gt;Output -->
<g id="edge4" class="edge">
<title>Shell&#45;&gt;Output</title>
<path fill="none" stroke="black" d="M714.59,-51.26C733.66,-51.58 755.47,-51.95 775.44,-52.29"/>
<polygon fill="black" stroke="black" points="775.34,-56.49 787.41,-52.5 775.48,-48.09 775.34,-56.49"/>
<text xml:space="preserve" text-anchor="middle" x="751.75" y="-55.19" font-family="Arial" font-size="11.00">Receive</text>
</g>
<!-- History -->
<g id="node6" class="node">
<title>History</title>
<path fill="#e1bee7" stroke="black" d="M1055.25,-76.62C1055.25,-76.62 977.75,-76.62 977.75,-76.62 971.75,-76.62 965.75,-70.62 965.75,-64.62 965.75,-64.62 965.75,-52.12 965.75,-52.12 965.75,-46.12 971.75,-40.12 977.75,-40.12 977.75,-40.12 1055.25,-40.12 1055.25,-40.12 1061.25,-40.12 1067.25,-46.12 1067.25,-52.12 1067.25,-52.12 1067.25,-64.62 1067.25,-64.62 1067.25,-70.62 1061.25,-76.62 1055.25,-76.62"/>
<text xml:space="preserve" text-anchor="middle" x="1016.5" y="-61.23" font-family="Arial" font-size="12.00">Add to History</text>
<text xml:space="preserve" text-anchor="middle" x="1016.5" y="-46.98" font-family="Arial" font-size="12.00">(update context)</text>
</g>
<!-- Output&#45;&gt;History -->
<g id="edge5" class="edge">
<title>Output&#45;&gt;History</title>
<path fill="none" stroke="black" d="M891,-54.81C910.08,-55.35 932.08,-55.98 952.23,-56.56"/>
<polygon fill="black" stroke="black" points="951.86,-60.75 963.98,-56.9 952.1,-52.36 951.86,-60.75"/>
<text xml:space="preserve" text-anchor="middle" x="928.25" y="-59.37" font-family="Arial" font-size="11.00">Process</text>
</g>
<!-- RootCheck -->
<g id="node8" class="node">
<title>RootCheck</title>
<polygon fill="#ffe0b2" stroke="black" points="1177.25,-117.88 1104.25,-81.38 1177.25,-44.88 1250.25,-81.38 1177.25,-117.88"/>
<text xml:space="preserve" text-anchor="middle" x="1177.25" y="-84.22" font-family="Arial" font-size="12.00">Root</text>
<text xml:space="preserve" text-anchor="middle" x="1177.25" y="-69.97" font-family="Arial" font-size="12.00">Achieved?</text>
</g>
<!-- History&#45;&gt;RootCheck -->
<g id="edge6" class="edge">
<title>History&#45;&gt;RootCheck</title>
<path fill="none" stroke="black" d="M1067.73,-65.65C1080,-67.43 1093.35,-69.36 1106.35,-71.25"/>
<polygon fill="black" stroke="black" points="1105.75,-75.4 1118.22,-72.97 1106.95,-67.09 1105.75,-75.4"/>
</g>
<!-- End -->
<g id="node7" class="node">
<title>End</title>
<path fill="#e3f2fd" stroke="black" d="M86.12,-123.62C86.12,-123.62 28.12,-123.62 28.12,-123.62 22.12,-123.62 16.12,-117.62 16.12,-111.62 16.12,-111.62 16.12,-99.12 16.12,-99.12 16.12,-93.12 22.12,-87.12 28.12,-87.12 28.12,-87.12 86.12,-87.12 86.12,-87.12 92.12,-87.12 98.12,-93.12 98.12,-99.12 98.12,-99.12 98.12,-111.62 98.12,-111.62 98.12,-117.62 92.12,-123.62 86.12,-123.62"/>
<text xml:space="preserve" text-anchor="middle" x="57.12" y="-108.22" font-family="Arial" font-size="12.00">New Prompt</text>
<text xml:space="preserve" text-anchor="middle" x="57.12" y="-93.97" font-family="Arial" font-size="12.00">(loop back)</text>
</g>
<!-- End&#45;&gt;Start -->
<g id="edge9" class="edge">
<title>End&#45;&gt;Start</title>
<path fill="none" stroke="black" stroke-dasharray="5,2" d="M57.12,-86.79C57.12,-77.71 57.12,-66.52 57.12,-56.14"/>
<polygon fill="black" stroke="black" points="61.33,-56.27 57.13,-44.27 52.93,-56.27 61.33,-56.27"/>
<text xml:space="preserve" text-anchor="middle" x="40.62" y="-67.92" font-family="Arial" font-size="11.00">Generate</text>
<text xml:space="preserve" text-anchor="middle" x="40.62" y="-54.42" font-family="Arial" font-size="11.00">new prompt</text>
</g>
<!-- RootCheck&#45;&gt;End -->
<g id="edge7" class="edge">
<title>RootCheck&#45;&gt;End</title>
<path fill="none" stroke="black" d="M1125.76,-92.47C1094.7,-98.35 1053.98,-104.38 1017.5,-104.38 282.5,-104.38 282.5,-104.38 282.5,-104.38 224.07,-104.38 157.09,-104.72 111.63,-105"/>
<polygon fill="black" stroke="black" points="111.74,-100.8 99.76,-105.08 111.79,-109.2 111.74,-100.8"/>
<text xml:space="preserve" text-anchor="middle" x="661.62" y="-120.92" font-family="Arial" font-size="11.00">No</text>
<text xml:space="preserve" text-anchor="middle" x="661.62" y="-107.42" font-family="Arial" font-size="11.00">(continue)</text>
</g>
<!-- Success -->
<g id="node9" class="node">
<title>Success</title>
<path fill="#4caf50" stroke="black" d="M1406.5,-99.62C1406.5,-99.62 1347,-99.62 1347,-99.62 1341,-99.62 1335,-93.62 1335,-87.62 1335,-87.62 1335,-75.12 1335,-75.12 1335,-69.12 1341,-63.12 1347,-63.12 1347,-63.12 1406.5,-63.12 1406.5,-63.12 1412.5,-63.12 1418.5,-69.12 1418.5,-75.12 1418.5,-75.12 1418.5,-87.62 1418.5,-87.62 1418.5,-93.62 1412.5,-99.62 1406.5,-99.62"/>
<text xml:space="preserve" text-anchor="middle" x="1376.75" y="-84.22" font-family="Arial" font-size="12.00" fill="white">Root Access</text>
<text xml:space="preserve" text-anchor="middle" x="1376.75" y="-69.97" font-family="Arial" font-size="12.00" fill="white">Achieved!</text>
</g>
<!-- RootCheck&#45;&gt;Success -->
<g id="edge8" class="edge">
<title>RootCheck&#45;&gt;Success</title>
<path fill="none" stroke="black" stroke-width="2" d="M1251.23,-81.38C1274.42,-81.38 1299.64,-81.38 1321.28,-81.38"/>
<polygon fill="black" stroke="black" stroke-width="2" points="1319.56,-85.58 1331.56,-81.38 1319.56,-77.18 1319.56,-85.58"/>
<text xml:space="preserve" text-anchor="middle" x="1292.62" y="-97.92" font-family="Arial" font-size="11.00">Yes</text>
<text xml:space="preserve" text-anchor="middle" x="1292.62" y="-84.42" font-family="Arial" font-size="11.00">(success!)</text>
</g>
</g>
</svg>
